<?xml version="1.0" encoding="utf-8"?>
<!-- Generator: Adobe Illustrator 22.0.0, SVG Export Plug-In . SVG Version: 6.00 Build 0)  -->
<svg version="1.1" id="Layer_1" xmlns="http://www.w3.org/2000/svg" xmlns:xlink="http://www.w3.org/1999/xlink" x="0px" y="0px"
	 viewBox="0 0 1400 1400" style="enable-background:new 0 0 1400 1400;" xml:space="preserve">
<style type="text/css">
	.st0{fill:#241337;}
	.st1{clip-path:url(#SVGID_2_);}
	.st2{fill:#2A1544;}
	.st3{fill:#2D1A51;}
	.st4{fill:#2D1D60;}
	.st5{fill:#37226B;}
	.st6{fill:#B8E2FF;}
	.st7{fill:#FFFFFF;}
	.st8{fill:#02405B;}
	.st9{fill:#E35D20;}
	.st10{fill:#F87325;}
	.st11{fill:#CC4217;}
	.st12{fill:#FBB040;}
	.st13{fill:#F4A337;}
	.st14{opacity:0.34;fill:#CC7723;enable-background:new    ;}
	.st15{fill:#E58005;}
	.st16{fill:#D87100;}
	.st17{fill:#90C7E7;}
	.st18{fill:none;}
</style>
<rect class="st0" width="1400" height="1400"/>
<g>
	<g>
		<defs>
			<rect id="SVGID_1_" width="1400" height="1400"/>
		</defs>
		<clipPath id="SVGID_2_">
			<use xlink:href="#SVGID_1_"  style="overflow:visible;"/>
		</clipPath>
		<g class="st1">
			<circle class="st2" cx="699.5" cy="286" r="516.2"/>
			<circle class="st3" cx="699.5" cy="286" r="382.5"/>
			<circle class="st4" cx="699.5" cy="286" r="311.4"/>
			<circle class="st5" cx="699.5" cy="286" r="258.8"/>
			<g>
				<g>
					<path class="st6" d="M1043.4,756.5c0,0,29.3-17.8,69.9-5.2c40.7,12.6,55.4,16.5,91.4,14.8c0,0-25.2,45-64.8,51.9
						s-63.2-0.3-86,29.5L1043.4,756.5z"/>
					<path class="st7" d="M1068.6,1045.2l-7.3,0.5l-22.9-306.6c-0.2-2,1.4-3.8,3.4-3.9l0,0c2-0.2,3.8,1.4,3.9,3.4L1068.6,1045.2z"/>
				</g>
				<circle class="st7" cx="1041.2" cy="732" r="8.6"/>
				<polygon class="st8" points="1094.3,772.1 1110.1,762.7 1106,780.7 1119.9,792.8 1101.5,794.5 1094.3,811.5 1087,794.5 
					1068.6,792.8 1082.5,780.7 1078.4,762.7 				"/>
			</g>
			<path class="st9" d="M75.4,1168.2c0,0,20.9-37.1,44.9-76.2s45.3-57.1,63.2-66.1s51.5-15,64.8-15s25.2,0,44.8,24.1
				s22.9,69.3,22.9,69.3l-136,69.2L75.4,1168.2z"/>
			<path class="st10" d="M189.8,1023.1c-2.2,0.9-4.4,1.8-6.3,2.8c-18,9-39.2,27.1-63.2,66.1c-24.1,39.1-44.9,76.2-44.9,76.2
				l69.2,3.4l7.9-7c0,0-11.2-27.4,0-73.4C159.7,1061.7,177.8,1037,189.8,1023.1z"/>
			<path class="st11" d="M294.8,1036.9l-12.5-13.7c0,0,0,0-0.1,0c-0.2,0.1-23.3,8.5-33.8,27.7c-10.5,19.3-12.3,40.4-12.3,40.4v25.8
				c0,0-3.7,17.2,0.9,27.4l79-40.2C316.1,1104.1,313,1061.3,294.8,1036.9z"/>
			<path class="st9" d="M263.9,1116.9c0,0,6.9-20.9,17.3-41.7c10.4-20.8,19.1-41.6,26-43.4c6.9-1.7,19.1,5.2,36.4,0
				s24.3-0.6,34.7-0.3s23.3,10.3,38.5,19.2s20.4,66.2,20.4,66.2L263.9,1116.9L263.9,1116.9z"/>
			<path class="st10" d="M437.2,1116.9c0,0-5.2-57.3-20.4-66.2s-28.1-18.9-38.5-19.2c-10.4-0.3-17.3-4.9-34.7,0.3
				c-3.2,1-6.2,1.5-9,1.8c0,0,17.1,8.2,33,17.1s33.2,14.1,33.2,14.1l16,37.9c0,0-1.8,6.6-2.2,14.3h22.6V1116.9z"/>
			<g>
				<g>
					<circle class="st12" cx="699.5" cy="286" r="213.7"/>
					<path class="st13" d="M821.8,110.7c-9.4-6.6-19.3-12.4-29.7-17.4c-79.9,34.9-193.4,45.3-265.1,66.4
						c-12.1,16.5-21.8,34.7-28.7,54c34.8-15.7,72.9-29.2,109-34.5C683,168,749.7,152.9,821.8,110.7z"/>
					<path class="st13" d="M604.6,229.5c-53.2,12-92.7,29.6-118.5,44c-0.9,16-0.1,32.2,2.7,48.5c29.4-22.3,76.6-54,116.7-62.5
						c63.5-13.5,182-75.1,182-75.1C751.4,195.3,708.7,206,604.6,229.5z"/>
					<path class="st13" d="M708.1,255.7c-86.4,34.2-135.7,61.5-135.7,61.5s59.5-21.2,172.3-53.3c68.7-19.5,115.6-56.1,141.8-81.7
						c-5.2-9.5-11.1-18.4-17.7-26.9C868.3,155.8,794.2,221.6,708.1,255.7z"/>
					<path class="st13" d="M514.4,392.9c7.5,13,16.3,25,26.1,35.9c33.9-20.5,78.7-42.4,135.2-59.5
						c121.2-36.7,208.4-93.5,235.6-112.5c-1-7.3-2.4-14.6-4.2-22c-0.7-2.9-1.5-5.7-2.3-8.5c-55.1,45.3-133.3,77.2-236,105.9
						C599.1,351.7,547.5,375.2,514.4,392.9z"/>
					<path class="st13" d="M892.6,322.4c0,0-70.2,47.5-163.3,76.8C663.7,419.9,613.2,452,589.2,469c11.4,6.9,23.4,12.7,36,17.3
						c26.9-21.5,65-47.2,108.3-62.3C818,394.7,892.6,322.4,892.6,322.4z"/>
					<path class="st13" d="M750.5,493.5c56.1-13.8,101.4-48.6,129.9-93.9c-21.7,9.5-49,20.6-79.6,31.6
						c-52.9,18.9-93.8,50.3-114.3,68.1C707.5,500.6,729.1,498.8,750.5,493.5z"/>
					<path class="st14" d="M765.1,428c-114.6,28.2-230.4-41.8-258.6-156.5c-5.3-21.5-7.1-43-5.9-64c-15.7,39.8-19.7,84.7-8.7,129.4
						c28.2,114.6,144,184.7,258.6,156.5c93.1-22.9,156.9-103.7,162.3-194.7C888.3,361,835,410.8,765.1,428z"/>
				</g>
				<path class="st15" d="M872.8,160.8c1,1.4,2,2.8,2.9,4.2c71.3-4.6,119.4,3.1,124.5,23.8c9,36.7-120.7,100.2-289.8,141.8
					S397,376.2,388,339.5c-5.1-20.7,33.9-49.9,99.2-78.9c0.2-1.7,0.4-3.4,0.7-5.1c-95.1,41.4-153.6,87.2-145.3,120.9
					c13,52.6,183.5,55.9,380.9,7.3s347-130.6,334-183.3C1049.3,166.8,976.2,153.4,872.8,160.8z"/>
				<path class="st16" d="M1033.4,175.6c3.8,4,6.4,8.4,7.6,13.2c12.5,50.7-131.7,129.8-322,176.7s-354.7,43.7-367.2-7
					c-1.2-4.8-0.9-9.9,0.6-15.2c-8.8,11.9-12.3,23.1-9.8,33.3c13,52.6,183.5,55.9,380.9,7.3s347-130.6,334-183.3
					C1055.1,190.4,1046.7,182.1,1033.4,175.6z"/>
			</g>
			<path class="st9" d="M1400,1206.1c-179.7-96-427-155.4-700-155.4S179.7,1110,0,1206.1V1400h1400V1206.1z"/>
			<path class="st10" d="M154.2,1225.4c0,0-55.3,28.4-72.6,45.7c-17.3,17.3,3.5,31.1,36.3,34.6s81.3,20.7,129.7,24.2
				s86.4-10.4,100.3-17.3c13.8-6.9-6.9-17.5-34.6-34.7s-13.8-32.5-20.7-52.5s-24.2-23.4-58.8-33.8S154.2,1225.4,154.2,1225.4z"/>
			<path class="st10" d="M1248.6,1205.5c0,0-8.4,4.3-11.1,7c-2.6,2.6,0.5,4.7,5.5,5.3s12.4,3.2,19.8,3.7s13.2-1.6,15.3-2.6
				c2.1-1.1-1.1-2.7-5.3-5.3s-2.1-5-3.2-8s-3.7-3.6-9-5.2C1255.5,1198.8,1248.6,1205.5,1248.6,1205.5z"/>
			<path class="st10" d="M848.1,1214.5c0,0-11.1,5.7-14.5,9.2c-3.5,3.5,0.7,6.2,7.3,6.9c6.6,0.7,16.3,4.2,26,4.8s17.3-2.1,20.1-3.5
				s-1.4-3.5-6.9-6.9s-2.8-6.5-4.2-10.5s-4.8-4.7-11.8-6.8C857.1,1205.7,848.1,1214.5,848.1,1214.5z"/>
			<path class="st10" d="M493.1,1260.2c0,0-13.8-14.3-34.6,0c-20.7,14.3,0,45.5,34.6,45.5s63.4-25.9,63.4-25.9
				S510.8,1266.6,493.1,1260.2z"/>
			<path class="st10" d="M387.4,1349.1c0,0-6.4-6.6-16,0s0,21.1,16,21.1s29.4-12,29.4-12S395.6,1352,387.4,1349.1z"/>
			<path class="st10" d="M959.2,1202.4c0,0-4.7-4.8-11.7,0s0,15.3,11.7,15.3s21.4-8.7,21.4-8.7S965.2,1204.5,959.2,1202.4z"/>
			<path class="st10" d="M180.1,1158c0,0-4.7-4.8-11.7,0s0,15.3,11.7,15.3s21.4-8.7,21.4-8.7S186,1160.1,180.1,1158z"/>
			<path class="st10" d="M586.5,1129.3c0,0-55.6-13.8-83.1,0c-27.5,13.8,55.4,27.7,83.1,31.1c27.7,3.5,73.1-18.6,73.1-18.6
				s28.2-29.8,0-36.7C631.4,1098.2,586.5,1129.3,586.5,1129.3z"/>
			<path class="st10" d="M1156.7,1150c0,0-22.1-5.5-33.1,0s22.1,11,33.1,12.4s29.1-7.4,29.1-7.4s11.2-11.9,0-14.6
				C1174.6,1137.6,1156.7,1150,1156.7,1150z"/>
			<path class="st11" d="M750.8,1308.7c0,0-25.1,26.9-36.1,38.7c-11,11.8,6.7,27.4,36.1,21.1c29.4-6.4,50.9,3.4,84.3,0
				c33.4-3.4,54.1-24,77.6-21.1c23.6,2.9,5.9-2.9-32.4-22.1s-22.7-30.9-45.2-33.9S786.1,1296.5,750.8,1308.7z"/>
			<path class="st11" d="M1108.6,1190c0,0-62.2,13.9-34.6,35.4c27.7,21.5,55.3,9.7,72.6,13.9c17.3,4.2,34.6-8.5,27.7-24.6
				C1167.4,1198.5,1108.6,1190,1108.6,1190z"/>
			<path class="st11" d="M614.3,1336.7c0,0-23.8,5.3-13.2,13.5s21.1,3.7,27.7,5.3s13.2-3.2,10.6-9.4
				C636.7,1339.9,614.3,1336.7,614.3,1336.7z"/>
			<path class="st11" d="M85.2,1224.2c0,0-15.9,3.1-7.2,6.5c8.6,3.4,7.5,3.7,14.3,0s9.6-14.5,5.9-13.2S85.2,1224.2,85.2,1224.2z"/>
			<path class="st11" d="M80.2,1364.2c0,0,31.7,2.5,17.1-8.5s-12.2-11-27-7.5c-14.9,3.4-25.8,22.4-18.1,21.8
				C59.9,1369.5,80.2,1364.2,80.2,1364.2z"/>
			<path class="st11" d="M1041.9,1293.4c0,0,31.7,2.5,17.1-8.5c-14.6-10.9-12.2-11-27-7.5c-14.9,3.4-25.8,22.4-18.1,21.8
				C1021.6,1298.7,1041.9,1293.4,1041.9,1293.4z"/>
			<path class="st11" d="M40.7,1333.5c0,0,16.2,1.3,8.7-4.3s-6.2-5.6-13.8-3.9c-7.6,1.8-13.2,11.5-9.3,11.2
				C30.3,1336.2,40.7,1333.5,40.7,1333.5z"/>
			<path class="st11" d="M321.9,1185.8c0,0-13,1.9,0,17.3s26.9-5,51.1,0s41.3,7.7,41.4-5.7s30.3-12.7-5.5-23.4
				C372.9,1163.2,321.9,1185.8,321.9,1185.8z"/>
			<path class="st11" d="M352.4,1252.2c0,0-5,0.7,0,6.6s10.2-1.9,19.4,0s15.7,2.9,15.7-2.2s11.5-4.8-2.1-8.9
				C371.9,1243.6,352.4,1252.2,352.4,1252.2z"/>
			<path class="st11" d="M478.2,1171.7c0,0-3.1,0.5,0,4.1c3.1,3.7,6.4-1.2,12.1,0c5.8,1.2,9.8,1.8,9.8-1.4c0-3.2,7.2-3-1.3-5.6
				S478.2,1171.7,478.2,1171.7z"/>
			<path class="st11" d="M1324.1,1286.3c0,0-3.1,0.5,0,4.1c3.1,3.7,6.4-1.2,12.1,0c5.8,1.2,9.8,1.8,9.8-1.4s7.2-3-1.3-5.6
				C1336.3,1281,1324.1,1286.3,1324.1,1286.3z"/>
			<path class="st11" d="M140.8,1354.8c0,0-3.1,0.5,0,4.1s6.4-1.2,12.1,0c5.8,1.2,9.8,1.8,9.8-1.4c0-3.2,7.2-3-1.3-5.6
				S140.8,1354.8,140.8,1354.8z"/>
			<path class="st11" d="M544.7,1323.3c0,0-3.1,0.5,0,4.1c3.1,3.7,6.4-1.2,12.1,0c5.8,1.2,9.8,1.8,9.8-1.4s7.2-3-1.3-5.6
				C556.9,1318,544.7,1323.3,544.7,1323.3z"/>
			<path class="st10" d="M1253.8,1305.7c0,0-41.5-2.4-45,24.8s45,27.1,45,27.1s45,24.2,55.3,17.3s48.4-26.6,38-44.4
				C1336.8,1312.6,1253.8,1305.7,1253.8,1305.7z"/>
			<path class="st10" d="M717.2,1140.7c0,0-12.6-0.7-13.6,7.5s13.6,8.2,13.6,8.2s13.6,7.3,16.7,5.2c3.1-2.1,14.6-8,11.5-13.4
				S717.2,1140.7,717.2,1140.7z"/>
			<path class="st10" d="M679.9,1312.7c0,0-7.2-0.4-7.8,4.3c-0.6,4.7,7.8,4.7,7.8,4.7s7.8,4.2,9.6,3s8.4-4.6,6.6-7.7
				C694.3,1313.9,679.9,1312.7,679.9,1312.7z"/>
			<path class="st10" d="M919,1129.2c0,0-7.2-0.4-7.8,4.3c-0.6,4.7,7.8,4.7,7.8,4.7s7.8,4.2,9.6,3s8.4-4.6,6.6-7.7
				C933.4,1130.4,919,1129.2,919,1129.2z"/>
			<path class="st11" d="M844.5,1104.1c0,0-19.4-11.4-40.2,0s2.1,31.5,20.1,28.3s32.5,6.6,51.2,0S884.6,1104.1,844.5,1104.1z"/>
			<path class="st11" d="M925.1,1274.3c0,0-8.2-4.8-17,0s0.9,13.4,8.5,12c7.6-1.3,13.8,2.8,21.7,0S942.1,1274.3,925.1,1274.3z"/>
			<path class="st11" d="M734,1077.6c0,0-9.1-5.3-18.8,0s1,14.8,9.4,13.3s15.2,3.1,24,0C757.3,1087.8,752.8,1077.6,734,1077.6z"/>
			<path class="st11" d="M1063.8,1152.3c0,0-4.3-2.5-8.9,0s0.5,7,4.5,6.3s7.2,1.5,11.4,0C1074.8,1157.2,1072.7,1152.3,1063.8,1152.3
				z"/>
			<path class="st11" d="M851.1,1152.3c0,0-4.3-2.5-8.9,0c-4.6,2.5,0.5,7,4.5,6.3s7.2,1.5,11.4,0
				C862.2,1157.2,860,1152.3,851.1,1152.3z"/>
			<path class="st11" d="M797,1214.9c0,0-4.3-2.5-8.9,0c-4.6,2.5,0.5,7,4.5,6.3s7.2,1.5,11.4,0C808,1219.7,805.9,1214.9,797,1214.9z
				"/>
			<path class="st11" d="M712.3,1269.3c0,0-4.3-2.5-8.9,0c-4.6,2.5,0.5,7,4.5,6.3s7.2,1.5,11.4,0
				C723.3,1274.2,721.2,1269.3,712.3,1269.3z"/>
			<path class="st11" d="M983.9,1353.1c0,0-6.5-6.9-16.4-4.8c-9.8,2.2-2.9,13.1,4.8,13.9c7.7,0.9,12.5,6.6,20.8,6.1
				C1001.5,1367.9,1000.2,1357.9,983.9,1353.1z"/>
			<path class="st11" d="M605.3,1225.4c0,0-15.7,28.5,0,28.5s44.4-10.2,54.2-13.8c9.9-3.5,57.2-18.9,40.4-25
				C683.3,1208.9,645,1207.3,605.3,1225.4z"/>
			<path class="st11" d="M435.7,1091.4c0,0-8.6,7.7-3.3,9.6s16.1,1.7,19.8,1.7c3.7,0,21.4,0.3,16.5-3.7S451.1,1090,435.7,1091.4z"/>
			<path class="st11" d="M1114.9,1292.6c0,0-17.4,12.2-8.2,16.7c9.2,4.5,29.1,6.8,35.9,7.5c6.8,0.8,39.1,5.4,31-3.1
				C1165.5,1305.3,1143.4,1293.4,1114.9,1292.6z"/>
			<path class="st11" d="M252,1139.4c0,0-7.5,11.3-1,11.9s18.8-2.8,23.1-3.9c4.2-1.1,24.5-5.9,17.7-9.1
				C285.1,1135.1,269.2,1133.2,252,1139.4z"/>
			<path class="st9" d="M962.7,1091.2c0,0,5.3-15.9,35.5-33.3c30.2-17.3,40.6-30.9,45.8-28.5c5.2,2.5,13.9-7.7,36.4,0
				c22.5,7.7,24.7,12.5,41,21.3s14.7,35.5,18.1,40.4s23,22.4,16.7,25.8s1.2,17.9,1.2,17.9s-40.2,2.9-53.3-2.3s-63.5-13.3-88.6-28.3
				C990.3,1089.1,962.7,1091.2,962.7,1091.2z"/>
			<path class="st10" d="M1080.4,1029.4c-22.5-7.7-31.2,2.5-36.4,0c-5.2-2.5-15.6,11.1-45.8,28.5c-30.2,17.3-35.5,33.3-35.5,33.3
				s12.9-1,29.2,3.3c3.7-1.9,6.4-3.3,6.4-3.3l17.2-18c0,0,16.5-20.5,47.5-22.4c15.2-0.9,29.6-6.1,40.4-11.1
				C1097.8,1036.4,1091.7,1033.2,1080.4,1029.4z"/>
			<g>
				<polygon class="st7" points="197.3,136 202.6,151.2 217.9,156.6 202.6,161.9 197.3,177.2 191.9,161.9 176.6,156.6 191.9,151.2 
									"/>
				<polygon class="st7" points="1190.8,860.9 1196.2,876.2 1211.4,881.5 1196.2,886.9 1190.8,902.1 1185.5,886.9 1170.2,881.5 
					1185.5,876.2 				"/>
				<polygon class="st7" points="1322.8,1063.1 1328.1,1078.3 1343.4,1083.7 1328.1,1089 1322.8,1104.3 1317.4,1089 1302.1,1083.7 
					1317.4,1078.3 				"/>
				<polygon class="st7" points="1317.5,844.1 1321.7,856 1333.6,860.2 1321.7,864.4 1317.5,876.3 1313.3,864.4 1301.4,860.2 
					1313.3,856 				"/>
				<polygon class="st7" points="1263.6,103.6 1268.9,118.9 1284.2,124.2 1268.9,129.6 1263.6,144.8 1258.2,129.6 1243,124.2 
					1258.2,118.9 				"/>
				<polygon class="st7" points="711.3,997 713.7,1003.6 720.3,1006 713.7,1008.3 711.3,1014.9 709,1008.3 702.4,1006 709,1003.6 
									"/>
				<polygon class="st7" points="1315.5,726.2 1317.8,732.8 1324.5,735.2 1317.8,737.5 1315.5,744.1 1313.2,737.5 1306.6,735.2 
					1313.2,732.8 				"/>
				<polygon class="st7" points="1190.8,717.3 1193.1,723.9 1199.7,726.2 1193.1,728.5 1190.8,735.2 1188.5,728.5 1181.9,726.2 
					1188.5,723.9 				"/>
				<polygon class="st7" points="248.4,542.5 250.7,549.1 257.3,551.5 250.7,553.8 248.4,560.4 246.1,553.8 239.4,551.5 
					246.1,549.1 				"/>
				<polygon class="st7" points="443.9,123 447.3,132.6 456.9,136 447.3,139.3 443.9,148.9 440.6,139.3 431,136 440.6,132.6 				"/>
				<polygon class="st7" points="418.1,542.5 420.4,549.1 427,551.5 420.4,553.8 418.1,560.4 415.8,553.8 409.1,551.5 415.8,549.1 
									"/>
				<polygon class="st7" points="392.2,838.6 394.5,845.2 401.1,847.6 394.5,849.9 392.2,856.5 389.9,849.9 383.2,847.6 
					389.9,845.2 				"/>
				<polygon class="st7" points="36.8,1081.1 39.1,1087.7 45.7,1090 39.1,1092.3 36.8,1098.9 34.4,1092.3 27.8,1090 34.4,1087.7 
									"/>
				<polygon class="st7" points="243.9,936.8 246.2,943.5 252.8,945.8 246.2,948.1 243.9,954.7 241.6,948.1 234.9,945.8 
					241.6,943.5 				"/>
				<polygon class="st7" points="212.6,778.9 220.7,802.1 243.9,810.2 220.7,818.4 212.6,841.5 204.5,818.4 181.3,810.2 
					204.5,802.1 				"/>
				<polygon class="st7" points="45.7,615.1 48,621.8 54.6,624.1 48,626.4 45.7,633 43.4,626.4 36.8,624.1 43.4,621.8 				"/>
				<polygon class="st7" points="1254.6,454.8 1257,461.4 1263.6,463.7 1257,466 1254.6,472.6 1252.3,466 1245.7,463.7 
					1252.3,461.4 				"/>
				<polygon class="st7" points="603,609.2 604.9,614.5 610.3,616.4 604.9,618.3 603,623.6 601.1,618.3 595.8,616.4 601.1,614.5 
									"/>
				<polygon class="st7" points="335,260.2 336.9,265.5 342.3,267.4 336.9,269.3 335,274.6 333.2,269.3 327.8,267.4 333.2,265.5 
									"/>
				<polygon class="st7" points="204.9,428.4 206.8,433.8 212.1,435.7 206.8,437.6 204.9,442.9 203,437.6 197.6,435.7 203,433.8 
									"/>
				<polygon class="st7" points="998.2,79.9 1000.1,85.2 1005.5,87.1 1000.1,89 998.2,94.3 996.3,89 991,87.1 996.3,85.2 				"/>
				<polygon class="st7" points="998.2,412.3 1000.1,417.6 1005.5,419.5 1000.1,421.4 998.2,426.7 996.3,421.4 991,419.5 
					996.3,417.6 				"/>
				<polygon class="st7" points="1322.8,55.9 1324.6,61.3 1330,63.2 1324.6,65 1322.8,70.4 1320.9,65 1315.5,63.2 1320.9,61.3 				
					"/>
				<polygon class="st7" points="904.7,36.2 912.7,59.1 935.7,67.2 912.7,75.2 904.7,98.1 896.7,75.2 873.7,67.2 896.7,59.1 				"/>
				<polygon class="st7" points="370.8,666.9 372.7,672.2 378,674.1 372.7,676 370.8,681.3 368.9,676 363.6,674.1 368.9,672.2 				
					"/>
				<polygon class="st7" points="962.7,973.8 965.4,981.6 973.2,984.4 965.4,987.1 962.7,994.9 960,987.1 952.1,984.4 960,981.6 
									"/>
				<polygon class="st7" points="571.8,873.9 573.8,879.5 579.4,881.5 573.8,883.5 571.8,889.1 569.8,883.5 564.2,881.5 
					569.8,879.5 				"/>
				<polygon class="st7" points="868.9,866.8 870.7,872 875.9,873.9 870.7,875.7 868.9,880.9 867,875.7 861.8,873.9 867,872 				"/>
				<polygon class="st7" points="952.1,543.6 955,551.7 963.1,554.6 955,557.4 952.1,565.5 949.3,557.4 941.2,554.6 949.3,551.7 
									"/>
				<polygon class="st7" points="1317.5,288 1320.3,296.1 1328.5,298.9 1320.3,301.8 1317.5,309.9 1314.6,301.8 1306.5,298.9 
					1314.6,296.1 				"/>
				<polygon class="st7" points="1153.9,295.8 1158.4,308.8 1171.5,313.4 1158.4,318 1153.9,331 1149.3,318 1136.3,313.4 
					1149.3,308.8 				"/>
				<polygon class="st7" points="1142.4,148.4 1144.8,155.2 1151.6,157.5 1144.8,159.9 1142.4,166.7 1140,159.9 1133.2,157.5 
					1140,155.2 				"/>
				<polygon class="st7" points="1306.5,516.1 1313.4,535.7 1332.9,542.5 1313.4,549.4 1306.5,568.9 1299.7,549.4 1280.1,542.5 
					1299.7,535.7 				"/>
				<polygon class="st7" points="99.8,890.5 102.8,899.1 111.5,902.2 102.8,905.2 99.8,913.9 96.7,905.2 88,902.2 96.7,899.1 				
					"/>
				<polygon class="st7" points="1190.8,1006 1193.9,1014.6 1202.5,1017.7 1193.9,1020.7 1190.8,1029.4 1187.8,1020.7 
					1179.1,1017.7 1187.8,1014.6 				"/>
				<polygon class="st7" points="1133.2,475.2 1136.3,483.9 1145,486.9 1136.3,490 1133.2,498.6 1130.2,490 1121.5,486.9 
					1130.2,483.9 				"/>
				<polygon class="st7" points="543.4,496.3 546.4,505 555.1,508 546.4,511.1 543.4,519.8 540.3,511.1 531.6,508 540.3,505 				"/>
				<polygon class="st7" points="90,68.1 93,76.8 101.7,79.9 93,82.9 90,91.6 87,82.9 78.3,79.9 87,76.8 				"/>
				<polygon class="st7" points="766.6,41 768.6,46.7 774.3,48.7 768.6,50.7 766.6,56.4 764.6,50.7 758.9,48.7 764.6,46.7 				"/>
				<polygon class="st7" points="304.6,41 306.6,46.7 312.3,48.7 306.6,50.7 304.6,56.4 302.6,50.7 297,48.7 302.6,46.7 				"/>
				<polygon class="st7" points="54.6,369.1 56.6,374.7 62.3,376.7 56.6,378.7 54.6,384.4 52.6,378.7 47,376.7 52.6,374.7 				"/>
				<polygon class="st7" points="217.9,291.3 219.9,297 225.6,298.9 219.9,300.9 217.9,306.6 215.9,300.9 210.2,298.9 215.9,297 
									"/>
				<polygon class="st7" points="156.1,691.9 158.1,697.6 163.8,699.5 158.1,701.5 156.1,707.2 154.1,701.5 148.4,699.5 
					154.1,697.6 				"/>
				<polygon class="st7" points="1066.9,640.7 1068.9,646.4 1074.6,648.4 1068.9,650.4 1066.9,656.1 1064.9,650.4 1059.2,648.4 
					1064.9,646.4 				"/>
				<polygon class="st7" points="1243,616.4 1245,622.1 1250.6,624.1 1245,626.1 1243,631.8 1241,626.1 1235.3,624.1 1241,622.1 
									"/>
				<polygon class="st7" points="1335.9,201 1337.8,206.7 1343.5,208.7 1337.8,210.7 1335.9,216.4 1333.9,210.7 1328.2,208.7 
					1333.9,206.7 				"/>
				<polygon class="st7" points="595.3,25.6 597.3,31.3 603,33.3 597.3,35.3 595.3,41 593.3,35.3 587.7,33.3 593.3,31.3 				"/>
				<polygon class="st7" points="90,508 94.9,522 108.8,526.8 94.9,531.7 90,545.6 85.1,531.7 71.2,526.8 85.1,522 				"/>
				<polygon class="st7" points="1011.3,296.6 1013.3,302.3 1019,304.3 1013.3,306.3 1011.3,312 1009.4,306.3 1003.7,304.3 
					1009.4,302.3 				"/>
				<polygon class="st7" points="1104,41 1106,46.7 1111.7,48.7 1106,50.7 1104,56.4 1102,50.7 1096.3,48.7 1102,46.7 				"/>
				<polygon class="st7" points="443,954.6 446,963.3 454.7,966.4 446,969.4 443,978.1 439.9,969.4 431.2,966.4 439.9,963.3 				"/>
				<polygon class="st7" points="786.2,565.5 789.3,574.2 798,577.3 789.3,580.3 786.2,589 783.2,580.3 774.5,577.3 783.2,574.2 
									"/>
			</g>
			<g>
				<g>
					<polygon class="st17" points="351.5,444.2 343.6,470.1 355.9,494.2 330,486.4 306,498.7 313.8,472.8 121,304.3 327.4,456.6 
											"/>
				</g>
				<polygon class="st7" points="318.2,471.7 156.1,333.7 327.1,461.1 345.1,451.8 339.5,470.5 348.4,487.9 329.7,482.2 
					312.3,491.1 				"/>
			</g>
			<rect x="506.3" y="781.7" class="st18" width="387.4" height="77.4"/>
			<circle class="st13" cx="75" cy="213.7" r="12.7"/>
			<circle class="st13" cx="1058.4" cy="544.2" r="12.7"/>
			<circle class="st13" cx="1181.9" cy="56.4" r="12.7"/>
		</g>
	</g>
</g>
</svg>
